<?xml version="1.0" encoding="UTF-8"?>
<svg version="1.1" xmlns="http://www.w3.org/2000/svg" width="183" height="184">
<path d="M0 0 C60.39 0 120.78 0 183 0 C183 60.72 183 121.44 183 184 C122.61 184 62.22 184 0 184 C0 123.28 0 62.56 0 0 Z " fill="#2663EB" transform="translate(0,0)"/>
<path d="M0 0 C60.39 0 120.78 0 183 0 C183 60.72 183 121.44 183 184 C122.61 184 62.22 184 0 184 C0 123.28 0 62.56 0 0 Z M34.625 39.4375 C18.34309207 58.94151181 13.45320244 80.52233549 15.23828125 105.30859375 C18.02395172 126.04636279 30.62563148 144.76144198 46.68359375 157.640625 C63.93834144 170.36619732 84.74352177 175.3961061 106.015625 172.5 C114.51675363 171.16319828 122.25048916 168.78262837 130 165 C130.91136719 164.58105469 131.82273437 164.16210938 132.76171875 163.73046875 C140.71744827 159.79232589 146.78910578 154.21089422 153 148 C153.75539062 147.24460938 154.51078125 146.48921875 155.2890625 145.7109375 C168.01323637 132.20071428 175.34063043 113.24532577 175.15234375 94.73046875 C174.31341664 74.18751001 168.92998458 55.55265303 155 40 C153.89011719 38.74896484 153.89011719 38.74896484 152.7578125 37.47265625 C138.28081606 22.07008135 119.26621923 14.16442364 98.29296875 12.75 C73.90037627 12.31970068 51.25484667 21.48884538 34.625 39.4375 Z " fill="#FDFEFE" transform="translate(0,0)"/>
<path d="M0 0 C0.8621814 -0.00571014 1.72436279 -0.01142029 2.6126709 -0.01730347 C4.03479134 -0.01898026 4.03479134 -0.01898026 5.48564148 -0.02069092 C6.98095901 -0.02813828 6.98095901 -0.02813828 8.50648499 -0.03573608 C11.81554344 -0.05038166 15.12455394 -0.05716388 18.43363953 -0.06268311 C20.7280884 -0.06843281 23.02253725 -0.07419057 25.31698608 -0.07995605 C30.13313522 -0.09047302 34.94926763 -0.09631106 39.76542664 -0.09979248 C45.9394572 -0.10527708 52.1132672 -0.12930162 58.28722858 -0.15776443 C63.02869311 -0.17638055 67.77010442 -0.18159588 72.5116024 -0.18312836 C74.78780002 -0.18615799 77.06399663 -0.19419691 79.34015846 -0.20731354 C82.52424045 -0.22435143 85.70778251 -0.22249905 88.89189148 -0.21600342 C89.83389908 -0.2252182 90.77590668 -0.23443298 91.74645996 -0.243927 C96.6254369 -0.21271807 99.92256584 -0.03853982 103.88285828 3.14044189 C105.89292392 5.25079281 106.77953534 6.49098343 107.23832703 9.37481689 C106.32910847 22.99195065 98.53940823 34.92604166 88.88285828 44.14044189 C88.34403015 44.69860596 87.80520203 45.25677002 87.25004578 45.83184814 C75.8273096 56.82407918 59.45719314 60.69140318 44.10087585 60.63067627 C27.47634522 60.08869773 13.83912937 52.06795847 2.46488953 40.23809814 C-4.76847563 31.94029129 -10.13732944 21.36655751 -11.61714172 10.45294189 C-10.93442895 5.9299698 -9.32900117 4.35230134 -6.11714172 1.14044189 C-3.82778679 -0.00423557 -2.54486551 0.0100771 0 0 Z " fill="#FDFEFE" transform="translate(47.11714172363281,96.85955810546875)"/>
</svg>
